<?xml version="1.0" encoding="utf-8"?>
<!-- Generator: Adobe Illustrator 25.0.0, SVG Export Plug-In . SVG Version: 6.00 Build 0)  -->
<svg version="1.1" id="Capa_1" xmlns="http://www.w3.org/2000/svg" xmlns:xlink="http://www.w3.org/1999/xlink" x="0px" y="0px"
	 viewBox="0 0 29 29" style="enable-background:new 0 0 29 29;" xml:space="preserve">
<style type="text/css">
	.st0{fill:#7E6525;}
</style>
<g id="Grupo_79" transform="translate(-15 -17)">
	<g id="Icon_attention_solid" transform="translate(15 17)">
		<path id="Shape" class="st0" d="M14.5,29C6.5,29,0,22.5,0,14.5S6.5,0,14.5,0S29,6.5,29,14.5C29,22.5,22.5,29,14.5,29z M14.5,20.3
			c-0.8,0-1.5,0.6-1.5,1.5c0,0.8,0.6,1.4,1.5,1.4s1.4-0.6,1.4-1.4C15.9,20.9,15.3,20.3,14.5,20.3z M14.5,5.8c-0.8,0-1.4,0.7-1.4,1.5
			V16c0,0.8,0.6,1.4,1.4,1.4c0.8,0,1.5-0.6,1.5-1.4V7.3C15.9,6.5,15.3,5.8,14.5,5.8z"/>
	</g>
</g>
</svg>
