<svg xmlns="http://www.w3.org/2000/svg" width="18" height="19" viewBox="0 0 18 19"><g><g><g><path fill="#999" d="M4.891 9.203c.011-2.143 1.793-3.909 3.935-3.898 2.143.011 3.908 1.793 3.898 3.935-.011 2.143-1.793 3.908-3.935 3.898-2.143-.011-3.909-1.793-3.898-3.935zm12.513-.02c-.539-1.204-1.224-2.309-2.189-3.223-1.494-1.417-3.255-2.266-5.306-2.521C5.744 2.922 1.849 5.32.302 9.02c-.024.057-.061.109-.091.163v.077c.531 1.193 1.21 2.288 2.16 3.197 1.498 1.432 3.269 2.29 5.334 2.547 4.162.517 8.057-1.878 9.608-5.581.024-.058.061-.109.091-.163v-.077z"/></g><g><path fill="#999" d="M8.799 6.886a2.33 2.33 0 0 1 2.344 2.346 2.329 2.329 0 0 1-2.328 2.325A2.33 2.33 0 0 1 6.472 9.21a2.329 2.329 0 0 1 2.327-2.324z"/></g><g><path fill="#999" d="M3.65 17.241l9.318-16.14.791.457-9.318 16.14z"/><path fill="none" stroke="#fff" stroke-miterlimit="20" stroke-width=".35" d="M3.65 17.241v0l9.318-16.14v0l.791.457v0l-9.318 16.14v0z"/></g></g></g></svg>