<?xml version="1.0" encoding="utf-8"?>
<!-- Generator: Adobe Illustrator 25.0.0, SVG Export Plug-In . SVG Version: 6.00 Build 0)  -->
<svg version="1.1" id="Capa_1" xmlns="http://www.w3.org/2000/svg" xmlns:xlink="http://www.w3.org/1999/xlink" x="0px" y="0px"
	 viewBox="0 0 29 29" style="enable-background:new 0 0 29 29;" xml:space="preserve">
<style type="text/css">
	.st0{fill:#6C2E33;}
</style>
<path id="Shape_1_" class="st0" d="M14.5,29C6.5,29,0,22.5,0,14.5S6.5,0,14.5,0S29,6.5,29,14.5C29,22.5,22.5,29,14.5,29z M14.5,16.5
	L14.5,16.5l4.8,4.8c0.6,0.6,1.5,0.5,2-0.1c0.5-0.6,0.5-1.4,0-2l-4.8-4.8l4.8-4.8c0.6-0.6,0.6-1.5,0.1-2s-1.5-0.6-2-0.1
	c0,0,0,0-0.1,0.1l-4.8,4.8L9.7,7.7c-0.6-0.6-1.5-0.5-2.1,0c-0.5,0.6-0.5,1.4,0,2l4.8,4.8l-4.8,4.8c-0.6,0.6-0.6,1.5-0.1,2
	s1.5,0.6,2.1,0.1c0,0,0,0,0.1-0.1L14.5,16.5L14.5,16.5z"/>
</svg>
