<svg xmlns="http://www.w3.org/2000/svg" width="12" height="11" viewBox="0 0 12 11"><g><g><g><path fill="#c1272d" d="M5.955 10.728H.963a.648.648 0 0 1-.561-.972l2.496-4.324 2.496-4.323a.648.648 0 0 1 1.122 0l2.496 4.323 2.496 4.324a.648.648 0 0 1-.561.972z"/></g><g><g><path fill="#fff" d="M5.596 8.891a.508.508 0 0 0-.157.374c0 .148.052.274.157.379a.517.517 0 0 0 .379.156.515.515 0 0 0 .378-.156.516.516 0 0 0 .157-.379.508.508 0 0 0-.157-.374.512.512 0 0 0-.378-.157.514.514 0 0 0-.379.157zm.909-4.865c.013-.138.02-.246.02-.323 0-.241-.053-.423-.157-.545a.501.501 0 0 0-.772 0c-.108.122-.162.284-.162.488 0 .083.01.209.03.38l.424 3.908h.183z"/></g></g></g></g></svg>