<svg xmlns="http://www.w3.org/2000/svg" width="9.597" height="10.057" viewBox="0 0 9.597 10.057">
  <g id="Icono_Exportar" data-name="Icono Exportar" transform="translate(-414.576 -606.819)">
    <path id="Trazado_300" data-name="Trazado 300" d="M256.161,203.325c-.009.011-.018.023-.028.034-.08.086-.162.172-.242.259l-.28.307-.268.295-.28.307-.277.3-.3.33a.276.276,0,0,1-.333,0,.335.335,0,0,1-.11-.2.3.3,0,0,1,.047-.21.927.927,0,0,1,.083-.1c.125-.133.251-.264.376-.4.089-.094.177-.19.265-.284l.3-.317a.3.3,0,0,0,.027-.042c-.143,0-.277,0-.412,0a2.069,2.069,0,0,0-.269.016,5.614,5.614,0,0,0-.81.151c-.144.044-.287.091-.427.145-.119.046-.236.1-.351.156a2.47,2.47,0,0,0-.251.136c-.159.1-.317.2-.469.311a4.388,4.388,0,0,0-.361.3c-.107.1-.208.2-.306.307s-.173.2-.254.3a4.373,4.373,0,0,0-.408.615c-.105.2-.205.4-.292.6a4.956,4.956,0,0,0-.313,1.1c0,.013-.02.033-.03.033-.177,0-.353,0-.538,0,.016-.092.03-.18.047-.268a5.82,5.82,0,0,1,.306-1.049,4.868,4.868,0,0,1,.326-.683c.09-.153.18-.306.282-.452s.233-.314.356-.466a3.9,3.9,0,0,1,.271-.3c.11-.109.223-.216.34-.316s.247-.2.372-.292a3.291,3.291,0,0,1,.495-.312c.1-.051.194-.1.294-.15.123-.057.247-.112.374-.158.157-.057.317-.1.476-.154a4.144,4.144,0,0,1,1-.159c.177-.01.355-.017.533-.025l-.022-.025-.376-.4-.281-.3-.291-.31a.33.33,0,0,1-.1-.321.27.27,0,0,1,.411-.182,1.057,1.057,0,0,1,.176.176c.008.008.014.019.022.028l.38.411.281.307.274.3.29.317.265.291a.076.076,0,0,0,.014.01Z" transform="translate(167.636 405.768)" fill="#fff" stroke="#fff" stroke-width="0.75"/>
    <path id="Trazado_301" data-name="Trazado 301" d="M195.675,261.871v.048q0,2.332,0,4.664a.685.685,0,0,1-.211.529.445.445,0,0,1-.3.114H188.5a.466.466,0,0,1-.279-.075.626.626,0,0,1-.264-.5c0-.021,0-.043,0-.064q0-3.014,0-6.029a.716.716,0,0,1,.16-.472.4.4,0,0,1,.092-.078.522.522,0,0,1,.293-.094c.835,0,1.669,0,2.5,0,.017,0,.035,0,.064,0a.473.473,0,0,1-.033.05c-.078.088-.158.175-.236.263s-.147.169-.219.254a.1.1,0,0,1-.087.04h-2.018v6.085h6.685v-.062q0-2.022,0-4.044a.165.165,0,0,1,.046-.124c.122-.13.24-.265.359-.4.034-.038.067-.079.1-.118Z" transform="translate(226.994 349.274)" fill="#fff" stroke="#fff" stroke-width="0.75"/>
  </g>
</svg>
