<svg xmlns="http://www.w3.org/2000/svg" width="18" height="13" viewBox="0 0 18 13"><g><g><g><path fill="#999" d="M4.891 6.555c.011-2.144 1.793-3.909 3.935-3.898 2.143.01 3.908 1.793 3.898 3.934-.011 2.144-1.793 3.909-3.935 3.898-2.143-.01-3.909-1.793-3.898-3.934zm12.513-.02c-.539-1.204-1.224-2.309-2.189-3.224-1.494-1.417-3.255-2.265-5.306-2.52C5.744.274 1.849 2.672.302 6.372c-.024.057-.061.109-.091.163v.076c.531 1.194 1.21 2.288 2.16 3.197 1.498 1.433 3.269 2.291 5.334 2.547 4.162.517 8.057-1.878 9.608-5.581.024-.057.061-.109.091-.163v-.076z"/></g><g><path fill="#999" d="M8.799 4.237a2.33 2.33 0 0 1 2.344 2.347 2.329 2.329 0 0 1-2.328 2.325 2.33 2.33 0 0 1-2.343-2.347 2.329 2.329 0 0 1 2.327-2.325z"/></g></g></g></svg>