<?xml version="1.0" encoding="utf-8"?>
<!-- Generator: Adobe Illustrator 25.0.0, SVG Export Plug-In . SVG Version: 6.00 Build 0)  -->
<svg version="1.1" id="Capa_1" xmlns="http://www.w3.org/2000/svg" xmlns:xlink="http://www.w3.org/1999/xlink" x="0px" y="0px"
	 viewBox="0 0 384.9 139.5" style="enable-background:new 0 0 384.9 139.5;" xml:space="preserve">
<style type="text/css">
	.st0{enable-background:new    ;}
	.st1{fill:#999999;}
	.st2{fill:#515151;}
	.st3{fill:#7C7C7C;}
</style>
<g>
	<g class="st0">
		<path class="st1" d="M271.7,114.8c-1.1,0.4-2.5,0.6-4.1,0.6c-4.8,0-7.9-2.3-9.3-6.9l1.8-0.6c1,3.8,3.5,5.7,7.5,5.7
			c2.3,0,4.1-0.6,5.4-1.7c1.3-1.1,2-2.8,2-5c0-2.1-0.8-3.8-2.3-5.2c-0.4-0.4-1-0.8-1.9-1.3c-0.9-0.5-1.9-1-3.3-1.6
			c-2.5-1.1-4.2-2.1-5.1-2.9c-1.5-1.3-2.3-3.1-2.3-5.3s0.8-3.9,2.3-5.3c1.5-1.4,3.4-2,5.7-2c3.7,0,6.3,1.4,7.9,4.2l-1.7,0.8
			c-0.6-1-1.3-1.7-2.1-2.2c-1-0.6-2.4-1-4-1c-1.7,0-3.2,0.5-4.3,1.5c-1.2,1-1.9,2.4-1.9,4.1c0,1.5,0.6,2.8,1.9,3.9
			c0.7,0.6,2.2,1.4,4.4,2.4c1.4,0.6,2.6,1.2,3.6,1.8c1,0.6,1.8,1.2,2.4,1.8c1.7,1.7,2.6,3.8,2.6,6.3
			C276.8,110.9,275.1,113.6,271.7,114.8z"/>
		<path class="st1" d="M297.1,113.5c-1.2,1.3-2.9,1.9-5.1,1.9c-2.2,0-3.8-0.6-5-1.9c-1.2-1.3-1.8-3-1.8-5.3V96.8h1.8v11.4
			c0,1.7,0.4,3.1,1.1,4c0.8,0.9,2.1,1.4,3.8,1.4c3.4,0,5.1-1.8,5.1-5.4V96.8h1.8v11.4C298.9,110.5,298.3,112.2,297.1,113.5z"/>
		<path class="st1" d="M307.6,93.6c-0.3,0-0.7-0.1-1-0.4c-0.3-0.3-0.4-0.6-0.4-1.1c0-0.8,0.5-1.3,1.5-1.5c0.7,0,1.2,0.5,1.5,1.5
			C309.1,93.1,308.6,93.6,307.6,93.6z M306.7,115.1V96.8h1.8v18.3H306.7z"/>
		<path class="st1" d="M321.3,98.7v16.4h-1.8V98.7H317v-1.8h2.5v-8h1.8v8h4.2v1.8H321.3z"/>
		<path class="st1" d="M333.9,105.6c0,2.5,0.7,4.4,2,5.9c1.4,1.5,3.3,2.2,5.7,2.2c1.2,0,2.4-0.2,3.4-0.6c1.3-0.5,2.4-1.6,3.4-3.2
			l1.6,0.8c-1.1,2.2-2.9,3.7-5.3,4.4c-0.9,0.3-1.9,0.4-3.1,0.4c-2.7,0-5-0.9-6.8-2.7c-1.8-1.8-2.7-4.1-2.7-6.8c0-2.7,0.9-5,2.7-6.8
			c1.8-1.8,4.1-2.7,6.8-2.7c2.7,0,5,0.8,6.7,2.5c1.8,1.7,2.7,3.9,2.7,6.5H333.9z M346.4,99.8c-1.4-1-3-1.5-4.8-1.5
			c-3.8,0-6.2,1.9-7.4,5.6H349C348.7,102.2,347.8,100.8,346.4,99.8z"/>
	</g>
</g>
<g>
	<g>
		<path class="st2" d="M46.2,48.6L41,47.9c-1.4-0.2-2.5-0.6-3.2-1.4c-0.9-0.9-1-1.9-1-2.3c0-2.1,1.8-4.5,5.7-4.5h0.3
			c2,0,5.2,0,7.9,2.4l6.1-6.1c-3.4-3.3-7.8-4.7-14-4.7c-9.2,0-15.4,5.3-15.4,13.3c0,3.6,1,6.4,2.9,8.4c1.9,1.9,4.7,3.2,8.5,3.7
			l5.2,0.7c1.4,0.2,2.4,0.6,3.1,1.3c0.7,0.7,1,1.7,1,2.9c0,2-1.2,4.3-6.6,4.3c-2,0-6.8-0.3-9.7-2.9l-6.2,6.2
			c3.8,3.7,8.5,5.3,15.8,5.3c8.1,0,16.3-4.1,16.3-13.2c0-4.2-1-7.2-3.1-9.2C52.7,50.3,49.9,49.1,46.2,48.6z"/>
		<polygon class="st2" points="78.1,74.1 87.9,74.1 87.9,40.2 98.5,40.2 98.5,31.6 67.4,31.6 67.4,40.2 78.1,40.2 		"/>
		<path class="st2" d="M119.2,59V31.6h-9.8v27.7c0,8.8,6.7,15.1,15.9,15.1c9.3,0,16.1-6.4,16.1-15.1V31.6h-9.8V59
			c0,4.2-2.4,6.8-6.3,6.8C121.6,65.8,119.2,63.2,119.2,59z"/>
		<polygon class="st2" points="179,51.3 164.7,51.3 164.7,40.2 179,40.2 179,31.6 154.9,31.6 154.9,74.1 164.7,74.1 164.7,59.9 
			179,59.9 		"/>
		<polygon class="st2" points="205.5,57 221.6,57 221.6,48.3 205.5,48.3 205.5,40.2 224.3,40.2 224.3,31.6 195.7,31.6 195.7,74.1 
			224.3,74.1 224.3,65.4 205.5,65.4 		"/>
		<polygon class="st2" points="237.3,31.6 237.3,74.1 247.1,74.1 247.1,51.2 261.6,74.1 270.3,74.1 270.3,31.6 260.5,31.6 
			260.5,54.4 245.9,31.6 		"/>
		<path class="st2" d="M311.5,35.7c-2.7-2.7-6.6-4.1-11.4-4.1h-15.6v42.5h15.6c4.7,0,8.7-1.4,11.4-4.1c4.5-4.5,4.4-9.2,4.4-15.3
			c0-0.6,0-1.2,0-1.8s0-1.2,0-1.8C315.9,45,315.9,40.2,311.5,35.7z M304.8,62.8c-1.2,1.8-2.9,2.6-5.5,2.6h-5.1V40.2h5.1
			c2.5,0,4.3,0.8,5.5,2.6c1,1.4,1.2,2.8,1.2,10C306.1,60.4,305.7,61.5,304.8,62.8z"/>
		<path class="st2" d="M355.1,36c-3.3-3.3-6.9-4.7-11.8-4.7s-8.5,1.5-11.8,4.7c-4.3,4.3-4.3,10-4.3,16.1v0.7v0.7
			c0,6.1,0,11.9,4.3,16.1c3.3,3.3,6.9,4.7,11.8,4.7s8.5-1.5,11.8-4.7c4.3-4.3,4.3-10,4.3-16.1v-0.7v-0.7
			C359.4,46,359.4,40.2,355.1,36z M347.9,63.7c-0.8,1-2.4,2.1-4.6,2.1s-3.8-1.1-4.6-2.1c-1-1.4-1.7-2.8-1.7-10.9s0.7-9.6,1.7-10.9
			c1-1.3,2.7-2.1,4.6-2.1s3.6,0.8,4.6,2.1l0,0c1,1.3,1.7,2.8,1.7,10.9S349,62.3,347.9,63.7z"/>
	</g>
	<rect x="179" y="40.2" class="st3" width="9.8" height="11.1"/>
</g>
</svg>
