<svg xmlns="http://www.w3.org/2000/svg" width="30" height="29" viewBox="0 0 30 29"><g><g><g><path fill="#323c61" d="M20.582 10.028l-7.646 7.646-3.52-3.52a1.16 1.16 0 1 0-1.64 1.641l4.337 4.337c.227.227.524.34.82.34h.005c.297 0 .594-.113.82-.34l8.464-8.464a1.16 1.16 0 1 0-1.64-1.64z"/></g><g><path fill="#323c61" d="M15 26.68c-6.717 0-12.18-5.464-12.18-12.18C2.82 7.784 8.282 2.32 15 2.32c6.715 0 12.18 5.464 12.18 12.18 0 6.716-5.465 12.18-12.18 12.18zM15 0C6.99 0 .5 6.492.5 14.5S6.99 29 15 29c8.008 0 14.5-6.492 14.5-14.5S23.008 0 15 0z"/></g></g></g></svg>